<svg width="50" height="158" viewBox="0 0 50 158" fill="none" xmlns="http://www.w3.org/2000/svg">
<path d="M15.8867 17.6426C-1.16663 17.6426 3.61824 14.0218 3.61824 41.4197" stroke="black" stroke-width="4.06902"/>
<path d="M30.0049 17.6461C46.9262 17.6461 42.2733 13.9921 42.2733 41.4231" stroke="black" stroke-width="4.06902" stroke-linecap="round"/>
<path d="M15.8252 17.6562H28.0322" stroke="black" stroke-width="4.06902" stroke-linecap="square"/>
<path d="M3.61816 40.2578V113.298" stroke="black" stroke-width="4.06902" stroke-linecap="square"/>
<path d="M15.8867 135.905C-0.795062 135.905 3.61828 131.835 3.61828 113.445" stroke="black" stroke-width="4.06902"/>
<path d="M30.0049 135.905C46.9473 135.905 42.2733 132.496 42.2733 113.445" stroke="black" stroke-width="4.06902"/>
<path d="M15.8252 135.906H28.0322" stroke="black" stroke-width="4.06902" stroke-linecap="square"/>
<path d="M42.2734 66.3438V113.298" stroke="black" stroke-width="4.06902" stroke-linecap="round"/>
<path d="M42.2739 41.4242C22.6066 37.2403 22.6066 71.6243 42.2739 67.4404" stroke="black" stroke-width="4.06902" stroke-linecap="round"/>
<path d="M30.4736 46.1797C44.8916 46.1797 44.7922 59.0222 30.4736 59.0222" stroke="black" stroke-width="3.05176" stroke-linecap="round"/>
<path d="M38.7468 55.8703C40.994 55.8703 42.8158 54.3131 42.8158 52.3922C42.8158 50.4713 40.994 48.9141 38.7468 48.9141C36.4995 48.9141 34.6777 50.4713 34.6777 52.3922C34.6777 54.3131 36.4995 55.8703 38.7468 55.8703Z" fill="black"/>
<path d="M42.2724 113.783C37.9077 113.783 37.9077 113.783 33.543 108.258" stroke="black" stroke-width="3.05176" stroke-linecap="round"/>
<path d="M11.71 135.906C13.6035 142.601 13.6976 148.978 11.9922 155.036" stroke="black" stroke-width="4.06902" stroke-linecap="round"/>
<path d="M34.1824 135.906C32.2889 142.601 32.1767 148.978 33.846 155.036" stroke="black" stroke-width="4.06902" stroke-linecap="round"/>
<path d="M16.5029 45.6641C16.5029 80.594 20.798 98.059 29.3882 98.059" stroke="black" stroke-width="3.05176" stroke-linecap="round"/>
<path d="M7.48438 17.6515C7.48438 7.21716 11.441 2 19.3542 2" stroke="black" stroke-width="3.13502" stroke-linecap="round"/>
<path d="M38.2041 17.8163C38.2041 8.42836 41.5705 3.73438 48.3033 3.73438" stroke="black" stroke-width="3.13502" stroke-linecap="round"/>
<path d="M23.919 17.6529C23.919 7.90515 22.1534 3.03125 18.6221 3.03125" stroke="black" stroke-width="3.13502" stroke-linecap="round"/>
<path d="M32.1374 17.6467C32.1374 8.04891 31.2417 3.25 29.4502 3.25" stroke="black" stroke-width="3.13502" stroke-linecap="round"/>
<path d="M15.7011 17.6511C15.7011 8.82121 14.4251 4.40625 11.873 4.40625" stroke="black" stroke-width="3.13502" stroke-linecap="round"/>
</svg>
