<svg width="50" height="158" viewBox="0 0 50 158" fill="none" xmlns="http://www.w3.org/2000/svg">
<path d="M34.4171 17.6426C51.4703 17.6426 46.6855 14.0218 46.6855 41.4197" stroke="black" stroke-width="4.06902"/>
<path d="M20.2988 17.6461C3.37755 17.6461 8.0304 13.9921 8.0304 41.4231" stroke="black" stroke-width="4.06902" stroke-linecap="round"/>
<path d="M34.4785 17.6562H22.2715" stroke="black" stroke-width="4.06902" stroke-linecap="square"/>
<path d="M46.6855 40.2578V113.298" stroke="black" stroke-width="4.06902" stroke-linecap="square"/>
<path d="M34.417 135.905C51.0988 135.905 46.6854 131.835 46.6854 113.445" stroke="black" stroke-width="4.06902"/>
<path d="M20.2988 135.905C3.35639 135.905 8.0304 132.496 8.0304 113.445" stroke="black" stroke-width="4.06902"/>
<path d="M34.4785 135.906H22.2715" stroke="black" stroke-width="4.06902" stroke-linecap="square"/>
<path d="M8.03027 66.3438V113.298" stroke="black" stroke-width="4.06902" stroke-linecap="round"/>
<path d="M8.02979 41.4242C27.6971 37.2403 27.6971 71.6243 8.02979 67.4404" stroke="black" stroke-width="4.06902" stroke-linecap="round"/>
<path d="M19.8301 46.1797C5.41206 46.1797 5.51147 59.0222 19.8301 59.0222" stroke="black" stroke-width="3.05176" stroke-linecap="round"/>
<path d="M11.557 55.8703C9.3097 55.8703 7.48794 54.3131 7.48794 52.3922C7.48794 50.4713 9.3097 48.9141 11.557 48.9141C13.8042 48.9141 15.626 50.4713 15.626 52.3922C15.626 54.3131 13.8042 55.8703 11.557 55.8703Z" fill="black"/>
<path d="M8.03127 113.783C12.396 113.783 12.396 113.783 16.7607 108.258" stroke="black" stroke-width="3.05176" stroke-linecap="round"/>
<path d="M38.5938 135.906C36.7002 142.601 36.6061 148.978 38.3115 155.036" stroke="black" stroke-width="4.06902" stroke-linecap="round"/>
<path d="M16.1213 135.906C18.0148 142.601 18.127 148.978 16.4577 155.036" stroke="black" stroke-width="4.06902" stroke-linecap="round"/>
<path d="M33.8008 45.6641C33.8008 80.594 29.5057 98.059 20.9156 98.059" stroke="black" stroke-width="3.05176" stroke-linecap="round"/>
<path d="M42.8193 17.6515C42.8193 7.21716 38.8627 2 30.9495 2" stroke="black" stroke-width="3.13502" stroke-linecap="round"/>
<path d="M12.0996 17.8163C12.0996 8.42836 8.73322 3.73438 2.00044 3.73438" stroke="black" stroke-width="3.13502" stroke-linecap="round"/>
<path d="M26.3847 17.6529C26.3847 7.90515 28.1503 3.03125 31.6816 3.03125" stroke="black" stroke-width="3.13502" stroke-linecap="round"/>
<path d="M18.1663 17.6467C18.1663 8.04891 19.062 3.25 20.8535 3.25" stroke="black" stroke-width="3.13502" stroke-linecap="round"/>
<path d="M34.6026 17.6511C34.6026 8.82121 35.8786 4.40625 38.4307 4.40625" stroke="black" stroke-width="3.13502" stroke-linecap="round"/>
</svg>
