<svg width="485" height="199" viewBox="0 0 485 199" fill="none" xmlns="http://www.w3.org/2000/svg">
<rect x="4" y="4" width="477" height="191" fill="white" stroke="black" stroke-width="8"/>
<path d="M76.33 161.106C74.75 161.106 73.486 160.369 72.538 158.894C71.6953 157.314 71.274 155.418 71.274 153.206C71.274 149.73 71.4847 145.464 71.906 140.408L72.222 136.3L72.538 127.926C72.538 124.239 72.1693 116.023 71.432 103.278C70.6947 90.5327 70.326 82.3167 70.326 78.63C70.326 78.314 70.326 77.7347 70.326 76.892C70.4313 75.944 70.484 74.522 70.484 72.626C70.5893 70.5193 70.642 67.9387 70.642 64.884C70.642 57.1947 70.1153 52.2967 69.062 50.19C68.43 50.19 67.0607 50.348 64.954 50.664L60.53 50.98C59.1607 50.98 57.9493 50.6113 56.896 49.874C55.8427 49.0313 55.316 47.978 55.316 46.714C55.316 45.45 56.58 44.344 59.108 43.396C62.7947 42.132 69.062 41.2367 77.91 40.71C81.4913 40.4993 83.6507 40.394 84.388 40.394C85.652 40.394 86.8107 40.8153 87.864 41.658C88.9173 42.5007 89.444 43.554 89.444 44.818C89.444 46.082 88.97 47.1353 88.022 47.978C87.1793 48.7153 86.0733 49.084 84.704 49.084L81.86 48.926C81.0173 48.8207 80.0693 48.768 79.016 48.768H77.436C78.1733 55.9307 78.542 62.4087 78.542 68.202L78.384 78.314C78.2787 81.3687 78.226 84.792 78.226 88.584C78.226 93.64 78.4367 99.6967 78.858 106.754C79.3847 115.497 79.648 121.553 79.648 124.924C79.648 128.927 79.8587 133.667 80.28 139.144C80.7013 144.727 80.912 149.467 80.912 153.364C80.912 158.525 79.3847 161.106 76.33 161.106ZM133.798 160C130.216 160 128.426 151.31 128.426 133.93L128.584 124.924L128.742 117.656V117.182V115.602C128.847 114.759 128.9 113.759 128.9 112.6C128.9 112.389 128.742 112.126 128.426 111.81C128.11 111.494 127.952 111.231 127.952 111.02V110.862C127.425 111.073 126.477 111.178 125.108 111.178C123.738 111.178 122.053 110.967 120.052 110.546C119.42 110.441 117.734 110.177 114.996 109.756V127.926C114.996 130.665 115.154 134.983 115.47 140.882C115.786 146.675 115.944 150.994 115.944 153.838C115.944 155.418 115.522 156.787 114.68 157.946C113.837 159.105 112.731 159.684 111.362 159.684C109.36 159.684 107.938 157.735 107.096 153.838C106.253 149.835 105.832 144.621 105.832 138.196L106.148 125.398C106.253 121.817 106.306 118.025 106.306 114.022V111.336V109.124C106.306 107.439 106.253 106.333 106.148 105.806V105.016L106.622 95.852C106.622 91.8493 106.464 85.898 106.148 77.998C105.832 70.098 105.674 64.1467 105.674 60.144C105.674 58.88 106.095 57.774 106.938 56.826C107.78 55.878 108.834 55.404 110.098 55.404C113.468 55.404 115.154 58.564 115.154 64.884L114.838 84.476C114.627 90.3747 114.522 96.958 114.522 104.226C116.102 104.753 118.946 105.016 123.054 105.016H128.9C129.11 104.384 129.216 103.752 129.216 103.12C129.216 98.064 128.9 90.5853 128.268 80.684C127.53 71.4147 127.162 63.8833 127.162 58.09C127.162 56.9313 127.583 55.9833 128.426 55.246C129.374 54.4033 130.48 53.982 131.744 53.982C132.481 53.982 133.534 54.2453 134.904 54.772L136.326 55.404C136.326 70.3613 136.852 90.322 137.906 115.286L139.328 155.26C139.328 156.735 138.748 157.893 137.59 158.736C136.536 159.579 135.272 160 133.798 160ZM165.564 162.054C164.195 162.054 162.931 161.58 161.772 160.632C160.719 159.684 160.14 158.525 160.034 157.156V153.048V149.888C159.929 148.94 159.876 147.834 159.876 146.57C159.876 144.358 159.718 140.987 159.402 136.458L159.086 126.346C159.086 121.185 159.244 113.495 159.56 103.278C159.982 94.114 160.192 86.4247 160.192 80.21C160.192 78.7353 160.034 76.5233 159.718 73.574C159.402 70.5193 159.244 68.3073 159.244 66.938C159.244 59.4593 161.456 55.72 165.88 55.72C169.356 55.72 173.359 56.4047 177.888 57.774C182.523 59.1433 184.84 60.776 184.84 62.672C184.84 63.7253 184.366 64.726 183.418 65.674C182.576 66.5167 181.522 67.2013 180.258 67.728C175.834 66.148 171.832 65.0947 168.25 64.568C168.356 66.148 168.408 68.4127 168.408 71.362C168.408 75.5753 168.356 79.3673 168.25 82.738C167.934 87.794 167.776 91.586 167.776 94.114L168.25 96.642L170.778 96.484C171.621 96.3787 172.674 96.326 173.938 96.326C178.994 96.326 181.522 97.8007 181.522 100.75C181.522 101.909 181.048 102.909 180.1 103.752C179.152 104.489 177.941 104.858 176.466 104.858C174.57 104.858 173.096 104.753 172.042 104.542H168.092C168.303 107.281 168.408 111.283 168.408 116.55C168.408 121.817 168.356 126.557 168.25 130.77C167.934 137.195 167.776 141.988 167.776 145.148C167.776 151.047 167.882 153.996 168.092 153.996L173.306 153.838C175.097 153.733 177.256 153.68 179.784 153.68C183.787 153.68 185.788 154.944 185.788 157.472C185.788 158.947 185.104 160.053 183.734 160.79C182.47 161.633 180.89 162.054 178.994 162.054H165.564ZM240.266 160.158C237.211 160.158 235.684 156.787 235.684 150.046C235.684 137.827 235.105 118.288 233.946 91.428C232.893 64.568 231.892 50.4007 230.944 48.926C230.944 45.9767 232.103 43.712 234.42 42.132C235.263 41.6053 236.421 41.184 237.896 40.868C239.476 40.4467 240.898 40.236 242.162 40.236C242.794 40.1307 244.111 40.078 246.112 40.078C248.535 40.078 250.273 40.4993 251.326 41.342C252.379 42.0793 252.906 43.4487 252.906 45.45C252.906 46.6087 252.485 47.504 251.642 48.136C250.799 48.6627 249.746 48.926 248.482 48.926L246.902 48.768H244.69C241.741 48.768 240.266 49.3473 240.266 50.506C240.266 55.9833 240.635 63.146 241.372 71.994C242.004 79.3673 242.425 86.372 242.636 93.008C243.373 92.7973 244.743 92.4813 246.744 92.06C248.851 91.5333 250.431 91.27 251.484 91.27C252.643 91.27 253.643 91.7967 254.486 92.85C255.329 93.798 255.75 94.904 255.75 96.168C255.75 97.6427 255.065 98.696 253.696 99.328C253.485 99.4333 252.959 99.6967 252.116 100.118C251.379 100.434 250.378 100.645 249.114 100.75C248.166 100.855 246.586 101.013 244.374 101.224H242.636C242.636 107.544 243.163 116.129 244.216 126.978C245.164 138.354 245.638 146.939 245.638 152.732L245.48 153.364L245.322 153.68C245.427 154.101 245.48 154.786 245.48 155.734C245.48 157.103 245.006 158.209 244.058 159.052C243.11 159.789 241.846 160.158 240.266 160.158ZM301.515 162.686C299.197 162.686 297.091 160.158 295.195 155.102C292.983 149.625 291.35 143.989 290.297 138.196L289.191 132.824C286.136 117.761 284.187 109.177 283.345 107.07H281.449C281.449 110.125 281.396 112.916 281.291 115.444V124.134C281.291 138.249 282.291 149.256 284.293 157.156L282.555 161.422H278.131L276.077 159.052L276.235 148.466C276.235 138.986 275.761 124.608 274.813 105.332C273.97 84.792 273.549 70.414 273.549 62.198C273.549 57.142 275.287 54.614 278.763 54.614C284.451 54.614 289.085 56.0887 292.667 59.038C296.353 61.9873 298.197 66.0953 298.197 71.362V82.422C298.197 84.002 297.933 85.8453 297.407 87.952C296.88 89.9533 296.301 91.586 295.669 92.85L292.667 98.538L290.139 103.278L290.929 107.07L293.141 118.288C294.615 126.399 296.037 132.982 297.407 138.038C298.776 143.094 300.461 147.676 302.463 151.784L303.411 153.68C304.464 155.787 304.991 157.472 304.991 158.736C304.991 159.789 304.675 160.685 304.043 161.422C303.411 162.265 302.568 162.686 301.515 162.686ZM282.081 99.328C284.398 98.1693 286.347 95.0093 287.927 89.848C289.612 84.5813 290.455 79.736 290.455 75.312C290.455 71.9413 290.033 68.7813 289.191 65.832C288.664 64.1467 287.769 62.8827 286.505 62.04C285.346 61.092 283.871 60.618 282.081 60.618L281.765 61.408L281.449 62.83L281.765 81.474C281.975 86.9513 282.081 92.9027 282.081 99.328ZM328.362 159.842C319.198 159.842 314.616 158.262 314.616 155.102C314.616 152.574 316.249 151.31 319.514 151.31H321.252L322.832 151.468C323.675 151.468 324.254 151.205 324.57 150.678C324.886 150.151 325.044 149.203 325.044 147.834C325.044 146.043 324.939 143.252 324.728 139.46C324.412 136.932 324.044 132.403 323.622 125.872C322.674 109.756 322.2 97.59 322.2 89.374C322.2 86.4247 322.253 83.7387 322.358 81.316L322.516 73.258C322.516 69.782 322.358 66.8853 322.042 64.568C320.357 64.9893 319.146 65.2 318.408 65.2C315.88 65.2 314.616 63.936 314.616 61.408C314.616 60.144 315.406 59.038 316.986 58.09C318.566 57.142 320.568 56.4573 322.99 56.036C327.204 55.1933 330.943 54.772 334.208 54.772C335.472 54.772 336.526 55.246 337.368 56.194C338.316 57.0367 338.79 58.0373 338.79 59.196C338.79 60.3547 338.422 61.3553 337.684 62.198C337.052 63.0407 336.21 63.462 335.156 63.462C334.524 63.462 333.998 63.4093 333.576 63.304H332.312C331.259 63.304 330.469 63.5673 329.942 64.094C329.521 64.5153 329.31 65.358 329.31 66.622C329.31 76.8393 329.942 92.218 331.206 112.758C331.417 116.55 331.838 122.133 332.47 129.506C332.997 134.351 333.26 139.302 333.26 144.358V150.362C333.892 150.257 334.946 150.204 336.42 150.204C340.844 150.204 343.056 152.047 343.056 155.734V156.682L339.106 159.368C339.001 159.368 338.632 159.421 338 159.526C337.474 159.526 336.42 159.526 334.84 159.526C331.47 159.737 329.31 159.842 328.362 159.842ZM363.373 162.054C362.003 162.054 360.739 161.58 359.581 160.632C358.527 159.684 357.948 158.525 357.843 157.156V153.048V149.888C357.737 148.94 357.685 147.834 357.685 146.57C357.685 144.358 357.527 140.987 357.211 136.458L356.895 126.346C356.895 121.185 357.053 113.495 357.369 103.278C357.79 94.114 358.001 86.4247 358.001 80.21C358.001 78.7353 357.843 76.5233 357.527 73.574C357.211 70.5193 357.053 68.3073 357.053 66.938C357.053 59.4593 359.265 55.72 363.689 55.72C367.165 55.72 371.167 56.4047 375.697 57.774C380.331 59.1433 382.649 60.776 382.649 62.672C382.649 63.7253 382.175 64.726 381.227 65.674C380.384 66.5167 379.331 67.2013 378.067 67.728C373.643 66.148 369.64 65.0947 366.059 64.568C366.164 66.148 366.217 68.4127 366.217 71.362C366.217 75.5753 366.164 79.3673 366.059 82.738C365.743 87.794 365.585 91.586 365.585 94.114L366.059 96.642L368.587 96.484C369.429 96.3787 370.483 96.326 371.747 96.326C376.803 96.326 379.331 97.8007 379.331 100.75C379.331 101.909 378.857 102.909 377.909 103.752C376.961 104.489 375.749 104.858 374.275 104.858C372.379 104.858 370.904 104.753 369.851 104.542H365.901C366.111 107.281 366.217 111.283 366.217 116.55C366.217 121.817 366.164 126.557 366.059 130.77C365.743 137.195 365.585 141.988 365.585 145.148C365.585 151.047 365.69 153.996 365.901 153.996L371.115 153.838C372.905 153.733 375.065 153.68 377.593 153.68C381.595 153.68 383.597 154.944 383.597 157.472C383.597 158.947 382.912 160.053 381.543 160.79C380.279 161.633 378.699 162.054 376.803 162.054H363.373ZM403.849 162.212C401.953 161.896 400.321 161.211 398.951 160.158C397.687 159.105 396.95 157.735 396.739 156.05L398.477 153.364C399.109 153.364 400.11 153.575 401.479 153.996C403.059 154.312 404.271 154.47 405.113 154.47C407.009 154.47 408.695 153.627 410.169 151.942C411.749 150.257 412.908 148.045 413.645 145.306C415.015 140.25 415.699 135.721 415.699 131.718C415.699 124.766 413.487 117.445 409.063 109.756L407.325 106.754C405.324 103.278 403.639 100.171 402.269 97.432C400.9 94.6933 399.741 91.744 398.793 88.584C397.529 84.476 396.897 80.368 396.897 76.26C396.897 71.6253 397.951 66.78 400.057 61.724C401.111 59.3013 402.585 57.3527 404.481 55.878C406.483 54.298 408.695 53.508 411.117 53.508C413.013 53.508 414.751 54.14 416.331 55.404C418.017 56.5627 418.859 57.9847 418.859 59.67C418.859 60.618 418.491 61.3553 417.753 61.882C417.016 62.4087 416.121 62.672 415.067 62.672C413.909 62.672 412.803 62.356 411.749 61.724C409.432 61.8293 407.589 63.8833 406.219 67.886C405.061 71.5727 404.481 74.6273 404.481 77.05C404.481 80.1047 404.955 83.212 405.903 86.372C406.851 89.4267 408.063 92.218 409.537 94.746L413.013 101.066L418.543 111.494C420.018 114.443 421.177 117.867 422.019 121.764C422.967 125.661 423.441 129.611 423.441 133.614C423.441 140.039 421.967 146.149 419.017 151.942C417.543 154.891 415.436 157.261 412.697 159.052C410.064 160.843 407.115 161.738 403.849 161.738V162.212Z" fill="black"/>
</svg>
