<svg width="36" height="114" viewBox="0 0 36 114" fill="none" xmlns="http://www.w3.org/2000/svg">
<path d="M30.81 113.444C28.7033 113.444 26.3333 111.917 23.7 108.862C21.172 105.702 18.644 101.541 16.116 96.38C12.324 88.6907 8.216 78.8947 3.792 66.992C1.68533 61.7253 0.421333 58.6707 0 57.828C0.105333 56.0373 1.896 50.2967 5.372 40.606C8.95333 30.9153 12.6927 21.9093 16.59 13.588C20.698 4.52933 23.4893 0 24.964 0H25.122L25.438 0.157998L28.914 2.844C28.4927 6.32 27.2287 10.7967 25.122 16.274C23.1207 21.646 20.8033 26.8073 18.17 31.758C12.0607 43.9767 9.006 52.5613 9.006 57.512C9.006 58.2493 12.482 65.9387 19.434 80.58C26.4913 95.116 31.0207 104.227 33.022 107.914H35.076C34.8653 109.494 34.3913 110.811 33.654 111.864C33.022 112.917 32.074 113.444 30.81 113.444Z" fill="black"/>
</svg>
