<svg width="36" height="114" viewBox="0 0 36 114" fill="none" xmlns="http://www.w3.org/2000/svg">
<path d="M4.26617 113.444C6.37284 113.444 8.74284 111.917 11.3762 108.862C13.9042 105.702 16.4322 101.541 18.9602 96.38C22.7522 88.6907 26.8602 78.8947 31.2842 66.992C33.3908 61.7253 34.6548 58.6707 35.0762 57.828C34.9708 56.0373 33.1802 50.2967 29.7042 40.606C26.1228 30.9153 22.3835 21.9093 18.4862 13.588C14.3782 4.52933 11.5868 0 10.1122 0H9.95417L9.63817 0.157998L6.16217 2.844C6.5835 6.32 7.8475 10.7967 9.95417 16.274C11.9555 21.646 14.2728 26.8073 16.9062 31.758C23.0155 43.9767 26.0702 52.5613 26.0702 57.512C26.0702 58.2493 22.5942 65.9387 15.6422 80.58C8.58484 95.116 4.05551 104.227 2.05417 107.914H0.000167847C0.210835 109.494 0.684835 110.811 1.42217 111.864C2.05417 112.917 3.00217 113.444 4.26617 113.444Z" fill="black"/>
</svg>
