<svg width="114" height="36" viewBox="0 0 114 36" fill="none" xmlns="http://www.w3.org/2000/svg">
<path d="M113.444 30.81C113.444 28.7033 111.917 26.3333 108.862 23.7C105.702 21.172 101.541 18.644 96.38 16.116C88.6907 12.324 78.8947 8.216 66.992 3.792C61.7253 1.68533 58.6707 0.421333 57.828 0C56.0373 0.105333 50.2967 1.896 40.606 5.372C30.9153 8.95333 21.9093 12.6927 13.588 16.59C4.52933 20.698 0 23.4893 0 24.964L0 25.122L0.157998 25.438L2.844 28.914C6.32 28.4927 10.7967 27.2287 16.274 25.122C21.646 23.1207 26.8073 20.8033 31.758 18.17C43.9767 12.0607 52.5613 9.006 57.512 9.006C58.2493 9.006 65.9387 12.482 80.58 19.434C95.116 26.4913 104.227 31.0207 107.914 33.022V35.076C109.494 34.8653 110.811 34.3913 111.864 33.654C112.917 33.022 113.444 32.074 113.444 30.81Z" fill="black"/>
</svg>
